<svg width="21.41" height="20" viewBox="0 0 38 35" fill="none" xmlns="http://www.w3.org/2000/svg">
<path d="M30.2858 10.7043L26.0083 6.70849C25.4501 6.21863 24.7185 5.93756 23.9529 5.91873C23.1872 5.89991 22.4408 6.14466 21.8558 6.60641L7.80566 19.7314C7.30105 20.2068 6.98686 20.8298 6.91582 21.496L6.24454 27.5772C6.22351 27.7908 6.25318 28.0061 6.33143 28.2078C6.40969 28.4095 6.5346 28.5925 6.69726 28.7439C6.84313 28.8791 7.01613 28.986 7.20633 29.0586C7.39654 29.1312 7.60021 29.1679 7.80566 29.1668H7.94616L14.456 28.6127C15.1692 28.5463 15.8361 28.2528 16.345 27.7814L30.3951 14.6564C30.9404 14.1182 31.2351 13.4001 31.2146 12.6593C31.1942 11.9185 30.8602 11.2155 30.2858 10.7043ZM14.175 25.696L9.49167 26.1043L9.91317 21.7293L18.7335 13.5918L22.9485 17.5293L14.175 25.696ZM24.978 15.5752L20.7942 11.6668L23.8384 8.75016L28.1002 12.7314L24.978 15.5752Z" fill="#808080"/>
</svg>
