<svg width="20" height="20" viewBox="0 0 33 33" fill="none" xmlns="http://www.w3.org/2000/svg">
<path d="M28.8749 8.24994H21.9999V5.95369C21.9677 5.07344 21.5877 4.2419 20.9433 3.64134C20.299 3.04079 19.4428 2.72023 18.5624 2.74994H14.4374C13.5571 2.72023 12.7009 3.04079 12.0565 3.64134C11.4122 4.2419 11.0322 5.07344 10.9999 5.95369V8.24994H4.12494C3.76027 8.24994 3.41053 8.39481 3.15267 8.65267C2.8948 8.91053 2.74994 9.26027 2.74994 9.62494C2.74994 9.98962 2.8948 10.3394 3.15267 10.5972C3.41053 10.8551 3.76027 10.9999 4.12494 10.9999H5.49994V26.1249C5.49994 27.219 5.93454 28.2682 6.70812 29.0418C7.48171 29.8153 8.53092 30.2499 9.62494 30.2499H23.3749C24.469 30.2499 25.5182 29.8153 26.2918 29.0418C27.0653 28.2682 27.4999 27.219 27.4999 26.1249V10.9999H28.8749C29.2396 10.9999 29.5893 10.8551 29.8472 10.5972C30.1051 10.3394 30.2499 9.98962 30.2499 9.62494C30.2499 9.26027 30.1051 8.91053 29.8472 8.65267C29.5893 8.39481 29.2396 8.24994 28.8749 8.24994ZM13.7499 5.95369C13.7499 5.73369 14.0387 5.49994 14.4374 5.49994H18.5624C18.9612 5.49994 19.2499 5.73369 19.2499 5.95369V8.24994H13.7499V5.95369ZM24.7499 26.1249C24.7499 26.4896 24.6051 26.8394 24.3472 27.0972C24.0893 27.3551 23.7396 27.4999 23.3749 27.4999H9.62494C9.26027 27.4999 8.91053 27.3551 8.65267 27.0972C8.3948 26.8394 8.24994 26.4896 8.24994 26.1249V10.9999H24.7499V26.1249Z" fill="#808080"/>
<path d="M12.375 23.375C12.7397 23.375 13.0894 23.2301 13.3473 22.9723C13.6051 22.7144 13.75 22.3647 13.75 22V16.5C13.75 16.1353 13.6051 15.7856 13.3473 15.5277C13.0894 15.2699 12.7397 15.125 12.375 15.125C12.0103 15.125 11.6606 15.2699 11.4027 15.5277C11.1449 15.7856 11 16.1353 11 16.5V22C11 22.3647 11.1449 22.7144 11.4027 22.9723C11.6606 23.2301 12.0103 23.375 12.375 23.375Z" fill="#808080"/>
<path d="M20.625 23.375C20.9897 23.375 21.3394 23.2301 21.5973 22.9723C21.8551 22.7144 22 22.3647 22 22V16.5C22 16.1353 21.8551 15.7856 21.5973 15.5277C21.3394 15.2699 20.9897 15.125 20.625 15.125C20.2603 15.125 19.9106 15.2699 19.6527 15.5277C19.3949 15.7856 19.25 16.1353 19.25 16.5V22C19.25 22.3647 19.3949 22.7144 19.6527 22.9723C19.9106 23.2301 20.2603 23.375 20.625 23.375Z" fill="#808080"/>
</svg>
