<svg width="40" height="40" viewBox="0 0 40 40" fill="none" xmlns="http://www.w3.org/2000/svg">
<path d="M20 3.33325C16.7036 3.33325 13.4813 4.31073 10.7405 6.14209C7.99966 7.97345 5.86346 10.5764 4.60199 13.6219C3.34053 16.6673 3.01048 20.0184 3.65357 23.2514C4.29665 26.4844 5.884 29.4542 8.21487 31.785C10.5457 34.1159 13.5155 35.7033 16.7485 36.3463C19.9815 36.9894 23.3326 36.6594 26.378 35.3979C29.4235 34.1365 32.0265 32.0002 33.8578 29.2594C35.6892 26.5186 36.6667 23.2963 36.6667 19.9999C36.6667 17.8112 36.2356 15.644 35.398 13.6219C34.5604 11.5998 33.3327 9.76245 31.7851 8.21481C30.2375 6.66716 28.4001 5.4395 26.378 4.60193C24.356 3.76435 22.1887 3.33325 20 3.33325ZM25 21.6666H21.6667V24.9999C21.6667 25.4419 21.4911 25.8659 21.1785 26.1784C20.8659 26.491 20.442 26.6666 20 26.6666C19.558 26.6666 19.134 26.491 18.8215 26.1784C18.5089 25.8659 18.3333 25.4419 18.3333 24.9999V21.6666H15C14.558 21.6666 14.134 21.491 13.8215 21.1784C13.5089 20.8659 13.3333 20.4419 13.3333 19.9999C13.3333 19.5579 13.5089 19.134 13.8215 18.8214C14.134 18.5088 14.558 18.3333 15 18.3333H18.3333V14.9999C18.3333 14.5579 18.5089 14.134 18.8215 13.8214C19.134 13.5088 19.558 13.3333 20 13.3333C20.442 13.3333 20.8659 13.5088 21.1785 13.8214C21.4911 14.134 21.6667 14.5579 21.6667 14.9999V18.3333H25C25.442 18.3333 25.8659 18.5088 26.1785 18.8214C26.4911 19.134 26.6667 19.5579 26.6667 19.9999C26.6667 20.4419 26.4911 20.8659 26.1785 21.1784C25.8659 21.491 25.442 21.6666 25 21.6666Z" fill="#808080"/>
</svg>
