<svg width="40" height="40" viewBox="0 0 40 40" fill="none" xmlns="http://www.w3.org/2000/svg">
<path d="M20 3.3335C16.7037 3.3335 13.4813 4.31098 10.7405 6.14234C7.99969 7.97369 5.86348 10.5767 4.60202 13.6221C3.34056 16.6675 3.0105 20.0187 3.65359 23.2517C4.29668 26.4847 5.88402 29.4544 8.2149 31.7853C10.5458 34.1161 13.5155 35.7035 16.7485 36.3466C19.9815 36.9897 23.3326 36.6596 26.3781 35.3982C29.4235 34.1367 32.0265 32.0005 33.8578 29.2597C35.6892 26.5188 36.6667 23.2965 36.6667 20.0002C36.6667 17.8115 36.2356 15.6442 35.398 13.6221C34.5604 11.6 33.3328 9.76269 31.7851 8.21505C30.2375 6.66741 28.4002 5.43975 26.3781 4.60217C24.356 3.76459 22.1887 3.3335 20 3.3335ZM24.5167 22.1502C24.6729 22.3051 24.7969 22.4894 24.8815 22.6925C24.9661 22.8956 25.0097 23.1135 25.0097 23.3335C25.0097 23.5535 24.9661 23.7714 24.8815 23.9745C24.7969 24.1776 24.6729 24.3619 24.5167 24.5168C24.3617 24.673 24.1774 24.797 23.9743 24.8816C23.7712 24.9663 23.5534 25.0098 23.3333 25.0098C23.1133 25.0098 22.8955 24.9663 22.6924 24.8816C22.4893 24.797 22.3049 24.673 22.15 24.5168L20 22.3502L17.85 24.5168C17.6951 24.673 17.5107 24.797 17.3076 24.8816C17.1045 24.9663 16.8867 25.0098 16.6667 25.0098C16.4467 25.0098 16.2288 24.9663 16.0257 24.8816C15.8226 24.797 15.6383 24.673 15.4833 24.5168C15.3271 24.3619 15.2031 24.1776 15.1185 23.9745C15.0339 23.7714 14.9903 23.5535 14.9903 23.3335C14.9903 23.1135 15.0339 22.8956 15.1185 22.6925C15.2031 22.4894 15.3271 22.3051 15.4833 22.1502L17.65 20.0002L15.4833 17.8502C15.1695 17.5363 14.9932 17.1107 14.9932 16.6668C14.9932 16.223 15.1695 15.7973 15.4833 15.4835C15.7972 15.1697 16.2228 14.9933 16.6667 14.9933C17.1105 14.9933 17.5362 15.1697 17.85 15.4835L20 17.6502L22.15 15.4835C22.4638 15.1697 22.8895 14.9933 23.3333 14.9933C23.7772 14.9933 24.2028 15.1697 24.5167 15.4835C24.8305 15.7973 25.0068 16.223 25.0068 16.6668C25.0068 17.1107 24.8305 17.5363 24.5167 17.8502L22.35 20.0002L24.5167 22.1502Z" fill="#808080"/>
</svg>
