<svg width="21" height="21" viewBox="0 0 21 21" fill="none" xmlns="http://www.w3.org/2000/svg">
<path d="M10.5 1.66772C8.76942 1.66772 7.0777 2.15674 5.63876 3.07294C4.19983 3.98914 3.07833 5.29137 2.41606 6.81496C1.75379 8.33854 1.58051 10.015 1.91813 11.6325C2.25575 13.2499 3.08911 14.7356 4.31282 15.9017C5.53653 17.0678 7.09563 17.8619 8.79297 18.1837C10.4903 18.5054 12.2496 18.3403 13.8485 17.7092C15.4473 17.0781 16.8139 16.0094 17.7754 14.6382C18.7368 13.267 19.25 11.6549 19.25 10.0058C19.25 8.91083 19.0237 7.82658 18.584 6.81496C18.1442 5.80333 17.4997 4.88415 16.6872 4.10989C15.8747 3.33563 14.9101 2.72145 13.8485 2.30242C12.7869 1.8834 11.6491 1.66772 10.5 1.66772ZM14.2625 8.013L10.2638 13.0158C10.1822 13.1167 10.0776 13.1985 9.95774 13.2549C9.83791 13.3113 9.70613 13.3407 9.5725 13.341C9.4396 13.3417 9.30828 13.3135 9.1885 13.2586C9.06873 13.2037 8.96366 13.1236 8.88125 13.0242L6.74625 10.431C6.67559 10.3445 6.62349 10.2456 6.59294 10.1399C6.56239 10.0342 6.55399 9.92385 6.56821 9.81507C6.58242 9.70629 6.61899 9.60124 6.67581 9.50592C6.73263 9.4106 6.8086 9.32688 6.89938 9.25954C7.08271 9.12354 7.31523 9.06251 7.54578 9.08987C7.65994 9.10342 7.77018 9.13827 7.8702 9.19241C7.97023 9.24656 8.05809 9.31895 8.12875 9.40546L9.55501 11.1398L12.8625 6.97074C12.9326 6.88314 13.0201 6.80956 13.12 6.75419C13.22 6.69882 13.3304 6.66275 13.4449 6.64804C13.5595 6.63333 13.676 6.64026 13.7877 6.66845C13.8995 6.69664 14.0043 6.74552 14.0963 6.81232C14.1882 6.87911 14.2654 6.9625 14.3235 7.05773C14.3816 7.15296 14.4195 7.25817 14.4349 7.36734C14.4503 7.47651 14.4431 7.58751 14.4135 7.694C14.3839 7.80049 14.3326 7.90039 14.2625 7.98798V8.013Z" fill="#FF6E06"/>
</svg>
