<svg width="303" height="82" viewBox="0 0 303 82" fill="none" xmlns="http://www.w3.org/2000/svg">
<path d="M140.62 19.92V48H133.78V31.16L127.5 48H121.98L115.66 31.12V48H108.82V19.92H116.9L124.78 39.36L132.58 19.92H140.62ZM168.579 36.48C168.579 37.12 168.539 37.7867 168.459 38.48H152.979C153.085 39.8667 153.525 40.9333 154.299 41.68C155.099 42.4 156.072 42.76 157.219 42.76C158.925 42.76 160.112 42.04 160.779 40.6H168.059C167.685 42.0667 167.005 43.3867 166.019 44.56C165.059 45.7333 163.845 46.6533 162.379 47.32C160.912 47.9867 159.272 48.32 157.459 48.32C155.272 48.32 153.325 47.8533 151.619 46.92C149.912 45.9867 148.579 44.6533 147.619 42.92C146.659 41.1867 146.179 39.16 146.179 36.84C146.179 34.52 146.645 32.4933 147.579 30.76C148.539 29.0267 149.872 27.6933 151.579 26.76C153.285 25.8267 155.245 25.36 157.459 25.36C159.619 25.36 161.539 25.8133 163.219 26.72C164.899 27.6267 166.205 28.92 167.139 30.6C168.099 32.28 168.579 34.24 168.579 36.48ZM161.579 34.68C161.579 33.5067 161.179 32.5733 160.379 31.88C159.579 31.1867 158.579 30.84 157.379 30.84C156.232 30.84 155.259 31.1733 154.459 31.84C153.685 32.5067 153.205 33.4533 153.019 34.68H161.579ZM206.227 25.68L200.187 48H192.627L189.107 33.52L185.467 48H177.947L171.867 25.68H178.707L181.867 41.64L185.627 25.68H192.867L196.667 41.56L199.787 25.68H206.227ZM219.915 48.32C217.969 48.32 216.235 47.9867 214.715 47.32C213.195 46.6533 211.995 45.7467 211.115 44.6C210.235 43.4267 209.742 42.12 209.635 40.68H216.395C216.475 41.4533 216.835 42.08 217.475 42.56C218.115 43.04 218.902 43.28 219.835 43.28C220.689 43.28 221.342 43.12 221.795 42.8C222.275 42.4533 222.515 42.0133 222.515 41.48C222.515 40.84 222.182 40.3733 221.515 40.08C220.849 39.76 219.769 39.4133 218.275 39.04C216.675 38.6667 215.342 38.28 214.275 37.88C213.209 37.4533 212.289 36.8 211.515 35.92C210.742 35.0133 210.355 33.8 210.355 32.28C210.355 31 210.702 29.84 211.395 28.8C212.115 27.7333 213.155 26.8933 214.515 26.28C215.902 25.6667 217.542 25.36 219.435 25.36C222.235 25.36 224.435 26.0533 226.035 27.44C227.662 28.8267 228.595 30.6667 228.835 32.96H222.515C222.409 32.1867 222.062 31.5733 221.475 31.12C220.915 30.6667 220.169 30.44 219.235 30.44C218.435 30.44 217.822 30.6 217.395 30.92C216.969 31.2133 216.755 31.6267 216.755 32.16C216.755 32.8 217.089 33.28 217.755 33.6C218.449 33.92 219.515 34.24 220.955 34.56C222.609 34.9867 223.955 35.4133 224.995 35.84C226.035 36.24 226.942 36.9067 227.715 37.84C228.515 38.7467 228.929 39.9733 228.955 41.52C228.955 42.8267 228.582 44 227.835 45.04C227.115 46.0533 226.062 46.8533 224.675 47.44C223.315 48.0267 221.729 48.32 219.915 48.32Z" fill="white"/>
<path d="M219.947 59.584C219.947 58.688 220.129 57.904 220.491 57.232C220.854 56.5493 221.35 56.0213 221.979 55.648C222.619 55.2747 223.329 55.088 224.107 55.088C224.875 55.088 225.542 55.2533 226.107 55.584C226.673 55.9147 227.094 56.3307 227.371 56.832V55.232H228.843V64H227.371V62.368C227.083 62.88 226.651 63.3067 226.075 63.648C225.51 63.9787 224.849 64.144 224.091 64.144C223.313 64.144 222.609 63.952 221.979 63.568C221.35 63.184 220.854 62.6453 220.491 61.952C220.129 61.2587 219.947 60.4693 219.947 59.584ZM227.371 59.6C227.371 58.9387 227.238 58.3627 226.971 57.872C226.705 57.3813 226.342 57.008 225.883 56.752C225.435 56.4853 224.939 56.352 224.395 56.352C223.851 56.352 223.355 56.48 222.907 56.736C222.459 56.992 222.102 57.3653 221.835 57.856C221.569 58.3467 221.435 58.9227 221.435 59.584C221.435 60.256 221.569 60.8427 221.835 61.344C222.102 61.8347 222.459 62.2133 222.907 62.48C223.355 62.736 223.851 62.864 224.395 62.864C224.939 62.864 225.435 62.736 225.883 62.48C226.342 62.2133 226.705 61.8347 226.971 61.344C227.238 60.8427 227.371 60.2613 227.371 59.6ZM231.56 59.584C231.56 58.688 231.741 57.904 232.104 57.232C232.467 56.5493 232.963 56.0213 233.592 55.648C234.232 55.2747 234.947 55.088 235.736 55.088C236.419 55.088 237.053 55.248 237.64 55.568C238.227 55.8773 238.675 56.288 238.984 56.8V52.16H240.456V64H238.984V62.352C238.696 62.8747 238.269 63.3067 237.704 63.648C237.139 63.9787 236.477 64.144 235.72 64.144C234.941 64.144 234.232 63.952 233.592 63.568C232.963 63.184 232.467 62.6453 232.104 61.952C231.741 61.2587 231.56 60.4693 231.56 59.584ZM238.984 59.6C238.984 58.9387 238.851 58.3627 238.584 57.872C238.317 57.3813 237.955 57.008 237.496 56.752C237.048 56.4853 236.552 56.352 236.008 56.352C235.464 56.352 234.968 56.48 234.52 56.736C234.072 56.992 233.715 57.3653 233.448 57.856C233.181 58.3467 233.048 58.9227 233.048 59.584C233.048 60.256 233.181 60.8427 233.448 61.344C233.715 61.8347 234.072 62.2133 234.52 62.48C234.968 62.736 235.464 62.864 236.008 62.864C236.552 62.864 237.048 62.736 237.496 62.48C237.955 62.2133 238.317 61.8347 238.584 61.344C238.851 60.8427 238.984 60.2613 238.984 59.6ZM254.26 55.072C254.943 55.072 255.551 55.216 256.084 55.504C256.618 55.7813 257.039 56.2027 257.348 56.768C257.658 57.3333 257.812 58.0213 257.812 58.832V64H256.372V59.04C256.372 58.1653 256.154 57.4987 255.716 57.04C255.29 56.5707 254.708 56.336 253.972 56.336C253.215 56.336 252.612 56.5813 252.164 57.072C251.716 57.552 251.492 58.2507 251.492 59.168V64H250.052V59.04C250.052 58.1653 249.834 57.4987 249.396 57.04C248.97 56.5707 248.388 56.336 247.652 56.336C246.895 56.336 246.292 56.5813 245.844 57.072C245.396 57.552 245.172 58.2507 245.172 59.168V64H243.716V55.232H245.172V56.496C245.46 56.0373 245.844 55.6853 246.324 55.44C246.815 55.1947 247.354 55.072 247.94 55.072C248.676 55.072 249.327 55.2373 249.892 55.568C250.458 55.8987 250.879 56.384 251.156 57.024C251.402 56.4053 251.807 55.9253 252.372 55.584C252.938 55.2427 253.567 55.072 254.26 55.072ZM261.753 53.808C261.475 53.808 261.241 53.712 261.049 53.52C260.857 53.328 260.761 53.0933 260.761 52.816C260.761 52.5387 260.857 52.304 261.049 52.112C261.241 51.92 261.475 51.824 261.753 51.824C262.019 51.824 262.243 51.92 262.425 52.112C262.617 52.304 262.713 52.5387 262.713 52.816C262.713 53.0933 262.617 53.328 262.425 53.52C262.243 53.712 262.019 53.808 261.753 53.808ZM262.457 55.232V64H261.001V55.232H262.457ZM270.01 55.072C271.077 55.072 271.941 55.3973 272.602 56.048C273.264 56.688 273.594 57.616 273.594 58.832V64H272.154V59.04C272.154 58.1653 271.936 57.4987 271.498 57.04C271.061 56.5707 270.464 56.336 269.706 56.336C268.938 56.336 268.325 56.576 267.866 57.056C267.418 57.536 267.194 58.2347 267.194 59.152V64H265.738V55.232H267.194V56.48C267.482 56.032 267.872 55.6853 268.362 55.44C268.864 55.1947 269.413 55.072 270.01 55.072Z" fill="white"/>
<rect x="64.9289" width="48.1839" height="48.1839" rx="10" transform="rotate(45 64.9289 0)" fill="white"/>
<rect x="34.0711" width="48.1839" height="48.1839" rx="10" transform="rotate(45 34.0711 0)" fill="white"/>
<rect x="67.1813" y="34.0712" width="25.0193" height="25.0193" transform="rotate(135 67.1813 34.0712)" fill="#FF9136" stroke="white"/>
</svg>
